<?xml version="1.0" encoding="utf-8"?>
<!-- Generator: Adobe Illustrator 22.1.0, SVG Export Plug-In . SVG Version: 6.00 Build 0)  -->
<svg version="1.1" xmlns="http://www.w3.org/2000/svg" xmlns:xlink="http://www.w3.org/1999/xlink"
	x="0px" y="0px"
	viewBox="0 0 215 41" style="enable-background:new 0 0 215 41;" xml:space="preserve">
<style type="text/css">
	.st0{fill:#FFFFFF;}
	.st1{fill:#8C8C8C;}
	.st2{fill:#F25022;}
	.st3{fill:#00A4EF;}
	.st4{fill:#7FBA00;}
	.st5{fill:#FFB900;}
	.st6{fill:#5E5E5E;}
</style>
<g id="Layer_1">
	<title>MS-SymbolLockup</title>
	<rect class="st0" width="215" height="41"/>
	<path class="st1" d="M214,1v39H1V1H214 M215,0H0v41h215V0z"/>
	<rect x="13" y="11" class="st2" width="9" height="9"/>
	<rect x="13" y="21" class="st3" width="9" height="9"/>
	<rect x="23" y="11" class="st4" width="9" height="9"/>
	<rect x="23" y="21" class="st5" width="9" height="9"/>
</g>
<g id="Layer_2">
	<g>
		<path class="st6" d="M49.8,13.3c-0.1,0.5-0.3,1-0.5,1.8l-0.4,1v10.2h-1.4v-7.3c-0.2,0.4-0.5,0.8-0.8,1.2L46,18.7
			c0.9-1.3,1.8-3.2,2.4-5.7L49.8,13.3z M59.4,25l-0.5,1.2c-2.3-0.2-4.2-0.7-5.5-1.5c-1,0.8-2,1.3-3.3,1.6l-0.6-1.2
			c1.2-0.3,2.1-0.7,2.8-1.2c-0.6-0.5-1.2-1.1-1.6-1.8l1.1-0.7c0.4,0.5,0.8,1,1.3,1.4c0.3-0.4,0.5-1,0.6-1.8h-3.4v-4.2h3.5v-1.2h-4
			v-1.2h4v-1.4H55v1.4h4v1.2h-4v1.2h3.5v4.2H55c-0.1,1-0.3,1.8-0.8,2.5C55.7,24.4,57.4,24.8,59.4,25z M53.7,18.3h-2.1V20h2.1
			C53.7,19.4,53.7,18.9,53.7,18.3z M57.1,20v-1.7H55c0,0.5,0,1.1,0,1.7H57.1z"/>
		<path class="st6" d="M73.4,24.8c0,0.4-0.1,0.8-0.4,1.1s-0.8,0.5-1.5,0.5c-0.3,0-0.7,0-1,0L70,24.9l1.7,0c0.1,0,0.2,0,0.3-0.2
			c0.1-0.1,0.1-0.2,0.1-0.3v-2.7h-3.7v4.2h-1.3v-4.2h-3.6c-0.2,1.9-0.6,3.5-1.3,4.6L61,25.6c0.4-0.6,0.7-1.5,1-2.5
			c0.2-1,0.3-2,0.3-2.9v-6.6h11.1V24.8z M67.1,17v-2.2h-3.5V17H67.1z M67.1,20.5v-2.2h-3.5v2.2H67.1z M72.1,17v-2.2h-3.7V17H72.1z
			 M72.1,20.5v-2.2h-3.7v2.2H72.1z"/>
		<path class="st6" d="M91.7,25.5H90v-6.8c0-0.6,0-1.2,0.1-2h0c-0.1,0.5-0.2,0.8-0.3,1l-3.1,7.9h-1.2l-3.1-7.8
			c-0.1-0.2-0.2-0.6-0.3-1h0c0,0.4,0.1,1.1,0.1,2.1v6.8h-1.6V15h2.5l2.8,7c0.2,0.5,0.3,0.9,0.4,1.2h0c0.2-0.6,0.3-1,0.4-1.2l2.8-7
			h2.4V25.5z"/>
		<path class="st6" d="M94.9,16.4c-0.3,0-0.5-0.1-0.7-0.3c-0.2-0.2-0.3-0.4-0.3-0.7s0.1-0.5,0.3-0.7c0.2-0.2,0.4-0.3,0.7-0.3
			c0.3,0,0.5,0.1,0.7,0.3s0.3,0.4,0.3,0.7c0,0.3-0.1,0.5-0.3,0.7S95.2,16.4,94.9,16.4z M95.8,25.5h-1.7V18h1.7V25.5z"/>
		<path class="st6" d="M103.3,25.2c-0.6,0.3-1.3,0.5-2.1,0.5c-1.1,0-2-0.3-2.7-1c-0.7-0.7-1-1.6-1-2.7c0-1.2,0.4-2.2,1.1-3
			c0.7-0.7,1.7-1.1,2.9-1.1c0.7,0,1.3,0.1,1.8,0.4v1.6c-0.5-0.4-1.1-0.6-1.7-0.6c-0.7,0-1.3,0.2-1.8,0.7s-0.7,1.1-0.7,1.9
			c0,0.8,0.2,1.4,0.6,1.8c0.4,0.4,1,0.7,1.7,0.7c0.6,0,1.2-0.2,1.7-0.7V25.2z"/>
		<path class="st6" d="M109.3,19.6c-0.2-0.2-0.5-0.2-0.9-0.2c-0.5,0-0.9,0.2-1.3,0.7s-0.5,1.1-0.5,1.9v3.6H105V18h1.7v1.5h0
			c0.2-0.5,0.4-0.9,0.8-1.2c0.3-0.3,0.7-0.4,1.2-0.4c0.3,0,0.5,0,0.7,0.1V19.6z"/>
		<path class="st6" d="M113.7,25.7c-1.2,0-2.1-0.4-2.8-1.1c-0.7-0.7-1-1.6-1-2.8c0-1.3,0.4-2.2,1.1-3c0.7-0.7,1.7-1.1,2.9-1.1
			c1.2,0,2.1,0.3,2.7,1s1,1.6,1,2.9c0,1.2-0.4,2.2-1.1,2.9C115.8,25.3,114.9,25.7,113.7,25.7z M113.8,19.2c-0.7,0-1.2,0.2-1.6,0.7
			c-0.4,0.5-0.6,1.1-0.6,1.9c0,0.8,0.2,1.4,0.6,1.9c0.4,0.5,0.9,0.7,1.6,0.7c0.7,0,1.2-0.2,1.5-0.7c0.4-0.4,0.5-1.1,0.5-1.9
			c0-0.8-0.2-1.5-0.5-1.9C115,19.4,114.4,19.2,113.8,19.2z"/>
		<path class="st6" d="M118.8,25.3v-1.6c0.6,0.5,1.3,0.7,2.1,0.7c1,0,1.5-0.3,1.5-0.9c0-0.2,0-0.3-0.1-0.4c-0.1-0.1-0.2-0.2-0.4-0.3
			c-0.1-0.1-0.3-0.2-0.5-0.2c-0.2-0.1-0.4-0.2-0.7-0.2c-0.3-0.1-0.6-0.3-0.8-0.4c-0.2-0.1-0.5-0.3-0.6-0.5c-0.2-0.2-0.3-0.4-0.4-0.6
			c-0.1-0.2-0.1-0.5-0.1-0.8c0-0.4,0.1-0.7,0.3-1s0.4-0.5,0.7-0.7c0.3-0.2,0.6-0.3,1-0.4c0.4-0.1,0.7-0.1,1.1-0.1
			c0.7,0,1.3,0.1,1.9,0.3v1.5c-0.5-0.4-1.1-0.5-1.8-0.5c-0.2,0-0.4,0-0.6,0.1c-0.2,0-0.3,0.1-0.4,0.2s-0.2,0.2-0.3,0.3
			c-0.1,0.1-0.1,0.2-0.1,0.4c0,0.2,0,0.3,0.1,0.4c0.1,0.1,0.2,0.2,0.3,0.3c0.1,0.1,0.3,0.2,0.5,0.2c0.2,0.1,0.4,0.1,0.6,0.2
			c0.3,0.1,0.6,0.3,0.9,0.4c0.3,0.1,0.5,0.3,0.7,0.5c0.2,0.2,0.3,0.4,0.4,0.6c0.1,0.2,0.1,0.5,0.1,0.8c0,0.4-0.1,0.7-0.3,1
			s-0.4,0.5-0.7,0.7s-0.6,0.3-1,0.4c-0.4,0.1-0.8,0.1-1.2,0.1C120.1,25.7,119.4,25.5,118.8,25.3z"/>
		<path class="st6" d="M129.1,25.7c-1.2,0-2.1-0.4-2.8-1.1c-0.7-0.7-1-1.6-1-2.8c0-1.3,0.4-2.2,1.1-3c0.7-0.7,1.7-1.1,2.9-1.1
			c1.2,0,2.1,0.3,2.7,1s1,1.6,1,2.9c0,1.2-0.4,2.2-1.1,2.9C131.2,25.3,130.2,25.7,129.1,25.7z M129.1,19.2c-0.7,0-1.2,0.2-1.6,0.7
			c-0.4,0.5-0.6,1.1-0.6,1.9c0,0.8,0.2,1.4,0.6,1.9c0.4,0.5,0.9,0.7,1.6,0.7c0.7,0,1.2-0.2,1.5-0.7c0.4-0.4,0.5-1.1,0.5-1.9
			c0-0.8-0.2-1.5-0.5-1.9C130.3,19.4,129.8,19.2,129.1,19.2z"/>
		<path class="st6" d="M138.6,15.8c-0.2-0.1-0.5-0.2-0.8-0.2c-0.8,0-1.2,0.5-1.2,1.4v1h1.7v1.3h-1.7v6.2h-1.7v-6.2h-1.3V18h1.3v-1.2
			c0-0.8,0.3-1.4,0.8-1.9c0.5-0.5,1.2-0.7,1.9-0.7c0.4,0,0.8,0,1,0.1V15.8z"/>
		<path class="st6" d="M143.8,25.4c-0.3,0.2-0.8,0.2-1.3,0.2c-1.5,0-2.2-0.7-2.2-2.1v-4.2H139V18h1.3v-1.7l1.7-0.5V18h1.8v1.3H142
			v3.8c0,0.4,0.1,0.8,0.2,1c0.2,0.2,0.4,0.3,0.8,0.3c0.3,0,0.5-0.1,0.7-0.2V25.4z"/>
		<path class="st6" d="M162.5,18.3l-0.8,1.1c-1.3-0.6-2.3-1.3-3-1.9v1H153v-0.8c-1.1,0.8-2.1,1.4-3,1.8l-0.8-1
			c1-0.5,1.9-0.9,2.5-1.3c-0.4-0.3-1-0.6-1.5-1l0.9-1c0.7,0.4,1.3,0.8,1.7,1.1c0.5-0.5,1-1,1.4-1.6h-3.8v-1.2h5.3v1.2
			c-0.5,0.9-1.2,1.8-2.1,2.7h5.1c-1.1-1.1-1.9-2.4-2.5-3.9l1.2-0.4c0.2,0.5,0.4,1,0.7,1.5c0.6-0.5,1.1-1,1.5-1.5l1.1,0.7
			c-0.5,0.7-1.1,1.3-1.8,1.9c0.2,0.2,0.4,0.4,0.6,0.7c0.6-0.5,1.2-1.1,1.8-1.8l1,0.7c-0.4,0.7-1,1.3-1.8,2
			C160.7,17.4,161.4,17.9,162.5,18.3z M162.1,26h-12.7v-1.2h3.9c-0.2-0.4-0.5-0.8-0.7-1.2l1-0.6h-2.2v-3.6h8.9v3.6H158l1,0.6
			c-0.2,0.4-0.4,0.8-0.6,1.3h3.7V26z M158.9,21.8v-1.3h-6.2v1.3H158.9z M157.8,22.9h-4c0.4,0.7,0.7,1.3,1,1.8h2.2
			C157.3,24.1,157.5,23.5,157.8,22.9z"/>
		<path class="st6" d="M177.3,25.3l-1,1c-2.9-2.5-4.7-5.2-5.5-8.2c-1,3.4-2.9,6.1-5.8,8.1l-1-1c1.3-0.9,2.4-1.9,3.4-3.1
			c0.9-1.2,1.7-2.6,2.1-4s0.7-2.4,0.7-2.9l0-0.3h-1.8v-1.3h3.1c0.1,2.9,0.7,5.2,1.7,7C174.2,22.3,175.6,23.9,177.3,25.3z"/>
	</g>
</g>
</svg>